<svg width="862" height="126" viewBox="0 0 862 126" fill="none" xmlns="http://www.w3.org/2000/svg">
<g filter="url(#filter0_d_2_157)">
<path d="M50.1211 55.7656C50.1211 57.6862 50.1211 59.5905 50.1211 61.4785C50.1211 63.3665 50.0234 65.2708 49.8281 67.1914C49.4701 71.2604 48.5911 75.1178 47.1914 78.7637C45.7917 82.377 43.8874 85.5508 41.4785 88.2852C39.1022 91.0195 36.2051 93.1842 32.7871 94.7793C29.3691 96.3743 25.4466 97.1719 21.0195 97.1719C19.2943 97.1719 17.4876 97.0254 15.5996 96.7324C13.7441 96.4395 11.8887 96 10.0332 95.4141C8.21029 94.8281 6.45247 94.112 4.75977 93.2656C3.09961 92.3867 1.61849 91.3776 0.316406 90.2383L3.34375 70.0234C5.26432 71.8789 7.39648 73.3926 9.74023 74.5645C12.084 75.7038 14.6393 76.2734 17.4062 76.2734C19.1966 76.2734 20.7103 76.013 21.9473 75.4922C23.1842 74.9714 24.2096 74.2552 25.0234 73.3438C25.8372 72.4323 26.472 71.3743 26.9277 70.1699C27.416 68.9329 27.7578 67.6309 27.9531 66.2637C28.181 64.8639 28.3112 63.4316 28.3438 61.9668C28.4089 60.502 28.4414 59.0534 28.4414 57.6211C28.4414 52.4453 28.181 47.3021 27.6602 42.1914C27.1393 37.0482 26.6836 31.9049 26.293 26.7617L48.6562 25.2969C49.6328 35.4531 50.1211 45.6094 50.1211 55.7656ZM114.818 58.5977C114.818 61.5599 114.477 64.4245 113.793 67.1914C113.109 69.9258 112.117 72.4974 110.814 74.9062C109.545 77.3151 107.982 79.5286 106.127 81.5469C104.304 83.5326 102.237 85.2415 99.9258 86.6738C97.6471 88.1061 95.1569 89.2292 92.4551 90.043C89.7533 90.8242 86.8887 91.2148 83.8613 91.2148C80.9316 91.2148 78.1322 90.8405 75.4629 90.0918C72.8262 89.3431 70.3522 88.3014 68.041 86.9668C65.7298 85.5996 63.6302 83.972 61.7422 82.084C59.8867 80.1634 58.2917 78.0475 56.957 75.7363C55.6549 73.3926 54.6296 70.8861 53.8809 68.2168C53.1647 65.5475 52.8066 62.7643 52.8066 59.8672C52.8066 57.0352 53.1484 54.2682 53.832 51.5664C54.5156 48.832 55.4922 46.2604 56.7617 43.8516C58.0638 41.4427 59.6263 39.2292 61.4492 37.2109C63.2721 35.1927 65.3066 33.4512 67.5527 31.9863C69.8314 30.5215 72.2891 29.3822 74.9258 28.5684C77.5625 27.7546 80.3457 27.3477 83.2754 27.3477C87.9954 27.3477 92.2923 28.0801 96.166 29.5449C100.072 31.0098 103.393 33.1094 106.127 35.8438C108.894 38.5456 111.026 41.8333 112.523 45.707C114.053 49.5482 114.818 53.8451 114.818 58.5977ZM93.1387 59.8672C93.1387 58.4674 92.9271 57.1165 92.5039 55.8145C92.1133 54.4798 91.5273 53.3079 90.7461 52.2988C89.9648 51.2572 88.9883 50.4271 87.8164 49.8086C86.6771 49.1576 85.3587 48.832 83.8613 48.832C82.3314 48.832 80.9642 49.1087 79.7598 49.6621C78.5553 50.2155 77.5137 50.9805 76.6348 51.957C75.7884 52.901 75.1374 54.0241 74.6816 55.3262C74.2259 56.5957 73.998 57.9466 73.998 59.3789C73.998 60.7461 74.1934 62.1133 74.584 63.4805C74.9746 64.8477 75.5605 66.0846 76.3418 67.1914C77.123 68.2982 78.0833 69.1934 79.2227 69.877C80.3945 70.5605 81.7454 70.9023 83.2754 70.9023C84.8053 70.9023 86.1725 70.6094 87.377 70.0234C88.6139 69.4049 89.6556 68.5911 90.502 67.582C91.3483 66.5404 91.9993 65.3522 92.4551 64.0176C92.9108 62.6829 93.1387 61.2995 93.1387 59.8672ZM177.27 85.0625C175.74 86.9831 173.852 88.6595 171.605 90.0918C169.359 91.5241 166.951 92.7122 164.379 93.6562C161.807 94.6003 159.171 95.3164 156.469 95.8047C153.767 96.2604 151.195 96.4883 148.754 96.4883C144.034 96.4883 139.688 95.6908 135.717 94.0957C131.745 92.5007 128.311 90.2871 125.414 87.4551C122.549 84.5905 120.303 81.1888 118.676 77.25C117.048 73.3112 116.234 69.0143 116.234 64.3594C116.234 60.8112 116.641 57.3607 117.455 54.0078C118.269 50.6549 119.424 47.5137 120.922 44.584C122.452 41.6543 124.307 38.9688 126.488 36.5273C128.669 34.0859 131.143 31.9863 133.91 30.2285C136.677 28.4707 139.704 27.1198 142.992 26.1758C146.312 25.1992 149.828 24.7109 153.539 24.7109C154.939 24.7109 156.436 24.776 158.031 24.9062C159.626 25.0039 161.205 25.1992 162.768 25.4922C164.363 25.7526 165.909 26.127 167.406 26.6152C168.904 27.1035 170.271 27.7057 171.508 28.4219L170.141 47.0742C168.318 46.3906 166.43 45.9349 164.477 45.707C162.556 45.4466 160.668 45.3164 158.812 45.3164C156.208 45.3164 153.767 45.6745 151.488 46.3906C149.242 47.0742 147.273 48.0996 145.58 49.4668C143.92 50.834 142.602 52.543 141.625 54.5938C140.648 56.6445 140.16 59.0208 140.16 61.7227C140.16 63.4154 140.388 65.0592 140.844 66.6543C141.299 68.2168 141.983 69.6165 142.895 70.8535C143.839 72.0579 144.994 73.0345 146.361 73.7832C147.761 74.5319 149.372 74.9062 151.195 74.9062C152.432 74.9062 153.702 74.7435 155.004 74.418C156.339 74.0924 157.478 73.5391 158.422 72.7578L158.617 68.9492L146.898 68.7539L147.484 54.1055C152.335 53.9427 157.185 53.8125 162.035 53.7148C166.885 53.5846 171.768 53.4219 176.684 53.2266L177.27 85.0625ZM241.381 58.5977C241.381 61.5599 241.039 64.4245 240.355 67.1914C239.672 69.9258 238.679 72.4974 237.377 74.9062C236.107 77.3151 234.545 79.5286 232.689 81.5469C230.867 83.5326 228.799 85.2415 226.488 86.6738C224.21 88.1061 221.719 89.2292 219.018 90.043C216.316 90.8242 213.451 91.2148 210.424 91.2148C207.494 91.2148 204.695 90.8405 202.025 90.0918C199.389 89.3431 196.915 88.3014 194.604 86.9668C192.292 85.5996 190.193 83.972 188.305 82.084C186.449 80.1634 184.854 78.0475 183.52 75.7363C182.217 73.3926 181.192 70.8861 180.443 68.2168C179.727 65.5475 179.369 62.7643 179.369 59.8672C179.369 57.0352 179.711 54.2682 180.395 51.5664C181.078 48.832 182.055 46.2604 183.324 43.8516C184.626 41.4427 186.189 39.2292 188.012 37.2109C189.835 35.1927 191.869 33.4512 194.115 31.9863C196.394 30.5215 198.852 29.3822 201.488 28.5684C204.125 27.7546 206.908 27.3477 209.838 27.3477C214.558 27.3477 218.855 28.0801 222.729 29.5449C226.635 31.0098 229.955 33.1094 232.689 35.8438C235.456 38.5456 237.589 41.8333 239.086 45.707C240.616 49.5482 241.381 53.8451 241.381 58.5977ZM219.701 59.8672C219.701 58.4674 219.49 57.1165 219.066 55.8145C218.676 54.4798 218.09 53.3079 217.309 52.2988C216.527 51.2572 215.551 50.4271 214.379 49.8086C213.24 49.1576 211.921 48.832 210.424 48.832C208.894 48.832 207.527 49.1087 206.322 49.6621C205.118 50.2155 204.076 50.9805 203.197 51.957C202.351 52.901 201.7 54.0241 201.244 55.3262C200.788 56.5957 200.561 57.9466 200.561 59.3789C200.561 60.7461 200.756 62.1133 201.146 63.4805C201.537 64.8477 202.123 66.0846 202.904 67.1914C203.686 68.2982 204.646 69.1934 205.785 69.877C206.957 70.5605 208.308 70.9023 209.838 70.9023C211.368 70.9023 212.735 70.6094 213.939 70.0234C215.176 69.4049 216.218 68.5911 217.064 67.582C217.911 66.5404 218.562 65.3522 219.018 64.0176C219.473 62.6829 219.701 61.2995 219.701 59.8672ZM319.652 57.2305C319.652 61.7878 319.066 65.873 317.895 69.4863C316.723 73.0996 315.079 76.306 312.963 79.1055C310.88 81.8724 308.389 84.2324 305.492 86.1855C302.595 88.1387 299.421 89.75 295.971 91.0195C292.52 92.2565 288.842 93.168 284.936 93.7539C281.062 94.3398 277.074 94.6328 272.973 94.6328C271.443 94.6328 269.945 94.6003 268.48 94.5352C267.016 94.4375 265.518 94.3073 263.988 94.1445L265.355 30.5703C268.936 29.431 272.615 28.6335 276.391 28.1777C280.199 27.6895 283.975 27.4453 287.719 27.4453C292.374 27.4453 296.654 28.0964 300.561 29.3984C304.467 30.7005 307.836 32.6211 310.668 35.1602C313.5 37.6667 315.697 40.7754 317.26 44.4863C318.855 48.1647 319.652 52.4128 319.652 57.2305ZM286.449 75.9805C288.402 75.6875 290.176 75.1016 291.771 74.2227C293.399 73.3112 294.799 72.2044 295.971 70.9023C297.143 69.5677 298.038 68.0703 298.656 66.4102C299.307 64.7174 299.633 62.9271 299.633 61.0391C299.633 59.1836 299.438 57.4583 299.047 55.8633C298.656 54.2357 298.021 52.8359 297.143 51.6641C296.264 50.4596 295.108 49.5156 293.676 48.832C292.243 48.1159 290.486 47.7253 288.402 47.6602L286.449 75.9805ZM381.762 91.8008L357.543 94.9258L354.613 83.8906H343.48L341.039 94.9258L316.137 92.4844L335.57 27.4453L362.719 26.0781L381.762 91.8008ZM352.855 68.9492L349.145 51.957L345.531 68.9492H352.855ZM487.67 62.8945C487.67 67.5495 487.523 72.1882 487.23 76.8105C486.938 81.4329 486.596 86.0716 486.205 90.7266L461.107 91.8984C461.856 86.2344 462.523 80.5703 463.109 74.9062C463.728 69.2096 464.037 63.513 464.037 57.8164C464.037 57.4583 464.021 56.8398 463.988 55.9609C463.956 55.0495 463.891 54.0241 463.793 52.8848C463.728 51.7454 463.614 50.5736 463.451 49.3691C463.321 48.1322 463.126 47.0091 462.865 46C462.637 44.9583 462.344 44.112 461.986 43.4609C461.628 42.8099 461.205 42.4844 460.717 42.4844C459.577 42.4844 458.682 42.9238 458.031 43.8027C457.38 44.6491 456.892 45.6745 456.566 46.8789C456.273 48.0833 456.094 49.3203 456.029 50.5898C455.964 51.8268 455.932 52.8359 455.932 53.6172C455.932 54.9844 455.964 56.3516 456.029 57.7188C456.094 59.0859 456.127 60.4857 456.127 61.918C456.127 66.9635 455.997 71.9928 455.736 77.0059C455.508 82.0189 455.215 87.0482 454.857 92.0938L431.713 92.9727C432.462 87.3086 433.113 81.6608 433.666 76.0293C434.252 70.3652 434.545 64.6849 434.545 58.9883C434.545 58.6302 434.529 57.9792 434.496 57.0352C434.464 56.0911 434.398 55.0332 434.301 53.8613C434.236 52.6895 434.122 51.4688 433.959 50.1992C433.796 48.9297 433.585 47.7741 433.324 46.7324C433.096 45.6582 432.803 44.7793 432.445 44.0957C432.087 43.4121 431.648 43.0703 431.127 43.0703C430.313 43.0703 429.63 43.3958 429.076 44.0469C428.523 44.6654 428.067 45.4792 427.709 46.4883C427.383 47.4974 427.123 48.6204 426.928 49.8574C426.765 51.0618 426.635 52.25 426.537 53.4219C426.472 54.5938 426.423 55.6842 426.391 56.6934C426.391 57.6699 426.374 58.4023 426.342 58.8906L425.268 94.5352H400.658C401.179 89.0339 401.7 83.5163 402.221 77.9824C402.774 72.4486 403.246 66.931 403.637 61.4297C404.06 55.8958 404.402 50.362 404.662 44.8281C404.923 39.2943 405.053 33.7604 405.053 28.2266L428.295 27.25L428.197 32.9141C428.913 32.0026 429.727 31.0911 430.639 30.1797C431.55 29.2357 432.51 28.4056 433.52 27.6895C434.561 26.9408 435.652 26.3385 436.791 25.8828C437.963 25.4271 439.167 25.1992 440.404 25.1992C441.999 25.1992 443.432 25.3294 444.701 25.5898C445.971 25.8177 447.11 26.2246 448.119 26.8105C449.161 27.3965 450.072 28.2103 450.854 29.252C451.635 30.2611 452.318 31.5469 452.904 33.1094C453.946 31.9701 454.988 30.9121 456.029 29.9355C457.104 28.959 458.227 28.1289 459.398 27.4453C460.57 26.7292 461.84 26.1758 463.207 25.7852C464.574 25.3945 466.088 25.1992 467.748 25.1992C470.906 25.1992 473.591 25.8177 475.805 27.0547C478.018 28.2591 479.857 29.8704 481.322 31.8887C482.82 33.9069 483.975 36.2181 484.789 38.8223C485.635 41.4264 486.27 44.1283 486.693 46.9277C487.117 49.7272 487.377 52.5104 487.475 55.2773C487.605 58.0443 487.67 60.5833 487.67 62.8945ZM546.654 56.5469C546.654 59.3789 546.459 62.2109 546.068 65.043C540.502 65.401 534.968 65.987 529.467 66.8008C523.965 67.582 518.464 68.3633 512.963 69.1445C513.809 71.4883 515.128 73.36 516.918 74.7598C518.741 76.1595 520.906 76.8594 523.412 76.8594C524.714 76.8594 526.13 76.6152 527.66 76.127C529.223 75.6387 530.769 75.0365 532.299 74.3203C533.829 73.5716 535.294 72.7741 536.693 71.9277C538.093 71.0814 539.298 70.3164 540.307 69.6328L537.963 91.8008C536.693 92.7773 535.31 93.6074 533.812 94.291C532.348 94.9746 530.818 95.528 529.223 95.9512C527.628 96.3743 526.016 96.6836 524.389 96.8789C522.761 97.0742 521.166 97.1719 519.604 97.1719C516.381 97.1719 513.435 96.7324 510.766 95.8535C508.096 94.9746 505.671 93.7539 503.49 92.1914C501.342 90.5964 499.454 88.7246 497.826 86.5762C496.199 84.4277 494.848 82.084 493.773 79.5449C492.699 77.0059 491.885 74.3203 491.332 71.4883C490.779 68.6562 490.502 65.7917 490.502 62.8945C490.502 59.8672 490.779 56.8398 491.332 53.8125C491.885 50.7852 492.715 47.8717 493.822 45.0723C494.962 42.2728 496.378 39.6849 498.07 37.3086C499.796 34.8997 501.798 32.8001 504.076 31.0098C506.355 29.2194 508.926 27.8197 511.791 26.8105C514.688 25.8014 517.878 25.2969 521.361 25.2969C524.258 25.2969 526.895 25.7038 529.271 26.5176C531.68 27.2988 533.812 28.4056 535.668 29.8379C537.556 31.2376 539.184 32.9141 540.551 34.8672C541.951 36.8203 543.09 38.9688 543.969 41.3125C544.88 43.6237 545.548 46.0814 545.971 48.6855C546.426 51.2572 546.654 53.8776 546.654 56.5469ZM527.123 54.0078C527.123 53.0964 527.025 52.1686 526.83 51.2246C526.635 50.248 526.309 49.3691 525.854 48.5879C525.43 47.8066 524.861 47.1719 524.145 46.6836C523.428 46.1628 522.533 45.9023 521.459 45.9023C520.157 45.9023 519.001 46.2604 517.992 46.9766C517.016 47.6602 516.169 48.5391 515.453 49.6133C514.737 50.6549 514.151 51.7943 513.695 53.0312C513.24 54.2682 512.898 55.4076 512.67 56.4492L527.123 55.082V54.0078ZM634.545 62.8945C634.545 67.5495 634.398 72.1882 634.105 76.8105C633.812 81.4329 633.471 86.0716 633.08 90.7266L607.982 91.8984C608.731 86.2344 609.398 80.5703 609.984 74.9062C610.603 69.2096 610.912 63.513 610.912 57.8164C610.912 57.4583 610.896 56.8398 610.863 55.9609C610.831 55.0495 610.766 54.0241 610.668 52.8848C610.603 51.7454 610.489 50.5736 610.326 49.3691C610.196 48.1322 610.001 47.0091 609.74 46C609.512 44.9583 609.219 44.112 608.861 43.4609C608.503 42.8099 608.08 42.4844 607.592 42.4844C606.452 42.4844 605.557 42.9238 604.906 43.8027C604.255 44.6491 603.767 45.6745 603.441 46.8789C603.148 48.0833 602.969 49.3203 602.904 50.5898C602.839 51.8268 602.807 52.8359 602.807 53.6172C602.807 54.9844 602.839 56.3516 602.904 57.7188C602.969 59.0859 603.002 60.4857 603.002 61.918C603.002 66.9635 602.872 71.9928 602.611 77.0059C602.383 82.0189 602.09 87.0482 601.732 92.0938L578.588 92.9727C579.337 87.3086 579.988 81.6608 580.541 76.0293C581.127 70.3652 581.42 64.6849 581.42 58.9883C581.42 58.6302 581.404 57.9792 581.371 57.0352C581.339 56.0911 581.273 55.0332 581.176 53.8613C581.111 52.6895 580.997 51.4688 580.834 50.1992C580.671 48.9297 580.46 47.7741 580.199 46.7324C579.971 45.6582 579.678 44.7793 579.32 44.0957C578.962 43.4121 578.523 43.0703 578.002 43.0703C577.188 43.0703 576.505 43.3958 575.951 44.0469C575.398 44.6654 574.942 45.4792 574.584 46.4883C574.258 47.4974 573.998 48.6204 573.803 49.8574C573.64 51.0618 573.51 52.25 573.412 53.4219C573.347 54.5938 573.298 55.6842 573.266 56.6934C573.266 57.6699 573.249 58.4023 573.217 58.8906L572.143 94.5352H547.533C548.054 89.0339 548.575 83.5163 549.096 77.9824C549.649 72.4486 550.121 66.931 550.512 61.4297C550.935 55.8958 551.277 50.362 551.537 44.8281C551.798 39.2943 551.928 33.7604 551.928 28.2266L575.17 27.25L575.072 32.9141C575.788 32.0026 576.602 31.0911 577.514 30.1797C578.425 29.2357 579.385 28.4056 580.395 27.6895C581.436 26.9408 582.527 26.3385 583.666 25.8828C584.838 25.4271 586.042 25.1992 587.279 25.1992C588.874 25.1992 590.307 25.3294 591.576 25.5898C592.846 25.8177 593.985 26.2246 594.994 26.8105C596.036 27.3965 596.947 28.2103 597.729 29.252C598.51 30.2611 599.193 31.5469 599.779 33.1094C600.821 31.9701 601.863 30.9121 602.904 29.9355C603.979 28.959 605.102 28.1289 606.273 27.4453C607.445 26.7292 608.715 26.1758 610.082 25.7852C611.449 25.3945 612.963 25.1992 614.623 25.1992C617.781 25.1992 620.466 25.8177 622.68 27.0547C624.893 28.2591 626.732 29.8704 628.197 31.8887C629.695 33.9069 630.85 36.2181 631.664 38.8223C632.51 41.4264 633.145 44.1283 633.568 46.9277C633.992 49.7272 634.252 52.5104 634.35 55.2773C634.48 58.0443 634.545 60.5833 634.545 62.8945ZM699.389 58.5977C699.389 61.5599 699.047 64.4245 698.363 67.1914C697.68 69.9258 696.687 72.4974 695.385 74.9062C694.115 77.3151 692.553 79.5286 690.697 81.5469C688.874 83.5326 686.807 85.2415 684.496 86.6738C682.217 88.1061 679.727 89.2292 677.025 90.043C674.324 90.8242 671.459 91.2148 668.432 91.2148C665.502 91.2148 662.702 90.8405 660.033 90.0918C657.396 89.3431 654.923 88.3014 652.611 86.9668C650.3 85.5996 648.201 83.972 646.312 82.084C644.457 80.1634 642.862 78.0475 641.527 75.7363C640.225 73.3926 639.2 70.8861 638.451 68.2168C637.735 65.5475 637.377 62.7643 637.377 59.8672C637.377 57.0352 637.719 54.2682 638.402 51.5664C639.086 48.832 640.062 46.2604 641.332 43.8516C642.634 41.4427 644.197 39.2292 646.02 37.2109C647.842 35.1927 649.877 33.4512 652.123 31.9863C654.402 30.5215 656.859 29.3822 659.496 28.5684C662.133 27.7546 664.916 27.3477 667.846 27.3477C672.566 27.3477 676.863 28.0801 680.736 29.5449C684.643 31.0098 687.963 33.1094 690.697 35.8438C693.464 38.5456 695.596 41.8333 697.094 45.707C698.624 49.5482 699.389 53.8451 699.389 58.5977ZM677.709 59.8672C677.709 58.4674 677.497 57.1165 677.074 55.8145C676.684 54.4798 676.098 53.3079 675.316 52.2988C674.535 51.2572 673.559 50.4271 672.387 49.8086C671.247 49.1576 669.929 48.832 668.432 48.832C666.902 48.832 665.535 49.1087 664.33 49.6621C663.126 50.2155 662.084 50.9805 661.205 51.957C660.359 52.901 659.708 54.0241 659.252 55.3262C658.796 56.5957 658.568 57.9466 658.568 59.3789C658.568 60.7461 658.764 62.1133 659.154 63.4805C659.545 64.8477 660.131 66.0846 660.912 67.1914C661.693 68.2982 662.654 69.1934 663.793 69.877C664.965 70.5605 666.316 70.9023 667.846 70.9023C669.376 70.9023 670.743 70.6094 671.947 70.0234C673.184 69.4049 674.226 68.5911 675.072 67.582C675.919 66.5404 676.57 65.3522 677.025 64.0176C677.481 62.6829 677.709 61.2995 677.709 59.8672ZM695.385 11.7227C691.511 13.8385 687.735 15.987 684.057 18.168C680.378 20.3164 676.7 22.6602 673.021 25.1992L666.771 18.3633C667.423 17.582 668.204 16.7194 669.115 15.7754C670.027 14.7988 670.987 13.806 671.996 12.7969C673.038 11.7878 674.112 10.7786 675.219 9.76953C676.326 8.72786 677.4 7.73503 678.441 6.79102C680.915 4.54492 683.503 2.28255 686.205 0.00390625L695.385 11.7227ZM760.033 48.9297C760.033 51.4688 759.805 53.7799 759.35 55.8633C758.926 57.9141 758.243 59.8021 757.299 61.5273C756.355 63.2526 755.134 64.8477 753.637 66.3125C752.139 67.7773 750.333 69.1771 748.217 70.5117L759.838 91.2148L737.865 95.5117L730.346 74.7109L724.291 74.9062L723.412 95.2188H702.416C702.579 87.7969 702.725 80.4076 702.855 73.0508C703.018 65.694 703.197 58.3047 703.393 50.8828C703.458 47.1393 703.523 43.4284 703.588 39.75C703.653 36.0716 703.783 32.3607 703.979 28.6172C706.257 27.7708 708.503 27.071 710.717 26.5176C712.93 25.9642 715.144 25.541 717.357 25.248C719.604 24.9225 721.866 24.7109 724.145 24.6133C726.456 24.4831 728.816 24.418 731.225 24.418C734.936 24.418 738.516 24.9388 741.967 25.9805C745.45 26.9896 748.526 28.5195 751.195 30.5703C753.865 32.6211 755.997 35.1764 757.592 38.2363C759.219 41.2962 760.033 44.8607 760.033 48.9297ZM738.158 50.4922C738.158 49.125 737.963 47.8717 737.572 46.7324C737.214 45.5931 736.661 44.6165 735.912 43.8027C735.196 42.9564 734.285 42.3053 733.178 41.8496C732.104 41.3613 730.834 41.1172 729.369 41.1172C728.718 41.1172 728.083 41.166 727.465 41.2637C726.846 41.3288 726.244 41.4427 725.658 41.6055L724.877 59.7695H726.049C727.449 59.7695 728.865 59.5905 730.297 59.2324C731.762 58.8743 733.064 58.321 734.203 57.5723C735.375 56.8236 736.319 55.8633 737.035 54.6914C737.784 53.5195 738.158 52.1198 738.158 50.4922ZM788.939 27.25L785.521 93.7539L764.916 94.8281L762.963 28.6172L788.939 27.25ZM853.734 91.8008L829.516 94.9258L826.586 83.8906H815.453L813.012 94.9258L788.109 92.4844L807.543 27.4453L834.691 26.0781L853.734 91.8008ZM824.828 68.9492L821.117 51.957L817.504 68.9492H824.828Z" fill="white"/>
</g>
<defs>
<filter id="filter0_d_2_157" x="0.316406" y="0.00390625" width="861.418" height="133.996" filterUnits="userSpaceOnUse" color-interpolation-filters="sRGB">
<feFlood flood-opacity="0" result="BackgroundImageFix"/>
<feColorMatrix in="SourceAlpha" type="matrix" values="0 0 0 0 0 0 0 0 0 0 0 0 0 0 0 0 0 0 127 0" result="hardAlpha"/>
<feOffset dx="4" dy="4"/>
<feGaussianBlur stdDeviation="2"/>
<feComposite in2="hardAlpha" operator="out"/>
<feColorMatrix type="matrix" values="0 0 0 0 0 0 0 0 0 0 0 0 0 0 0 0 0 0 0.25 0"/>
<feBlend mode="normal" in2="BackgroundImageFix" result="effect1_dropShadow_2_157"/>
<feBlend mode="normal" in="SourceGraphic" in2="effect1_dropShadow_2_157" result="shape"/>
</filter>
</defs>
</svg>
